<svg xmlns="http://www.w3.org/2000/svg" viewBox="0 0 1120 256" fill="none">
  <defs>
    <style><![CDATA[
      @font-face {
        font-family: 'OBTI Sans';
        src: url('../fonts/Manrope-500.ttf') format('truetype');
        font-weight: 500;
        font-style: normal;
      }

      @font-face {
        font-family: 'OBTI Sans';
        src: url('../fonts/Manrope-700.ttf') format('truetype');
        font-weight: 700;
        font-style: normal;
      }

      @font-face {
        font-family: 'OBTI Sans CJK';
        src: url('../fonts/NotoSansCJKsc-Bold.otf') format('opentype');
        font-weight: 700;
        font-style: normal;
      }
    ]]></style>
    <linearGradient id="panel" x1="24" x2="204" y1="16" y2="228" gradientUnits="userSpaceOnUse">
      <stop stop-color="#0D1018" />
      <stop offset=".62" stop-color="#1A2231" />
      <stop offset="1" stop-color="#2A3448" />
    </linearGradient>
    <linearGradient id="ring" x1="48" x2="181" y1="40" y2="185" gradientUnits="userSpaceOnUse">
      <stop stop-color="#F9FBFF" />
      <stop offset=".44" stop-color="#DDE6F1" />
      <stop offset="1" stop-color="#74859E" />
    </linearGradient>
    <linearGradient id="pillar" x1="96" x2="140" y1="66" y2="154" gradientUnits="userSpaceOnUse">
      <stop stop-color="#F3F7FD" />
      <stop offset="1" stop-color="#748297" />
    </linearGradient>
  </defs>
  <rect width="176" height="176" x="24" y="40" fill="url(#panel)" rx="46" />
  <rect width="176" height="176" x="24" y="40" stroke="#F3F7FD" stroke-opacity=".08" rx="46" />
  <circle cx="112" cy="128" r="45" stroke="url(#ring)" stroke-width="8" />
  <path stroke="url(#ring)" stroke-linecap="round" stroke-width="5.2" d="M74 128h76" opacity=".72" />
  <rect width="24" height="76" x="100" y="90" fill="url(#pillar)" rx="12" />
  <path fill="#F6F9FD" d="M111.5 66.5c0-2.1 2.4-3.4 4.1-2.1l10.1 7.3c1.5 1.1 1.4 3.3-.1 4.3l-10.1 6.6c-1.8 1.2-4.1-.1-4.1-2.4V66.5Z" opacity=".95" />
  <text x="248" y="72" fill="#4F5E6F" font-family="'OBTI Sans', sans-serif" font-size="18" font-weight="700" letter-spacing="6">OFFSTAGE ARCHIVE</text>
  <text x="246" y="148" fill="#131B24" font-family="'OBTI Sans', 'OBTI Sans CJK', sans-serif" font-size="102" font-weight="700" letter-spacing="3">SLTI</text>
  <text x="252" y="194" fill="#243240" font-family="'OBTI Sans', 'OBTI Sans CJK', sans-serif" font-size="29" font-weight="600" letter-spacing="1.4">顺路办件小事，结果越走越歪</text>
  <path stroke="#78889A" stroke-linecap="round" stroke-width="2" d="M252 220h510" opacity=".72" />
  <text x="252" y="240" fill="#5E6D7B" font-family="'OBTI Sans', 'OBTI Sans CJK', sans-serif" font-size="18" font-weight="500" letter-spacing="1">individual tendency archive</text>
</svg>
