<svg xmlns="http://www.w3.org/2000/svg" viewBox="0 0 256 256" fill="none">
  <defs>
    <linearGradient id="panel" x1="36" x2="219" y1="24" y2="228" gradientUnits="userSpaceOnUse">
      <stop stop-color="#0D1018" />
      <stop offset=".58" stop-color="#161C28" />
      <stop offset="1" stop-color="#242F42" />
    </linearGradient>
    <linearGradient id="ring" x1="58" x2="199" y1="53" y2="203" gradientUnits="userSpaceOnUse">
      <stop stop-color="#F8FBFF" />
      <stop offset=".36" stop-color="#DBE7F5" />
      <stop offset=".72" stop-color="#91A4BD" />
      <stop offset="1" stop-color="#536279" />
    </linearGradient>
    <linearGradient id="pillar" x1="106" x2="153" y1="77" y2="171" gradientUnits="userSpaceOnUse">
      <stop stop-color="#F4F7FB" />
      <stop offset=".45" stop-color="#CED9E7" />
      <stop offset="1" stop-color="#738095" />
    </linearGradient>
    <radialGradient id="glow" cx="0" cy="0" r="1" gradientTransform="matrix(0 78 -72 0 128 128)" gradientUnits="userSpaceOnUse">
      <stop stop-color="#A9C0DE" stop-opacity=".28" />
      <stop offset="1" stop-color="#A9C0DE" stop-opacity="0" />
    </radialGradient>
    <filter id="soft" width="188" height="188" x="34" y="34" color-interpolation-filters="sRGB" filterUnits="userSpaceOnUse">
      <feFlood flood-opacity="0" result="BackgroundImageFix" />
      <feGaussianBlur in="SourceGraphic" stdDeviation="10" />
    </filter>
  </defs>
  <rect width="184" height="184" x="36" y="36" fill="url(#panel)" rx="50" />
  <rect width="184" height="184" x="36" y="36" stroke="#EFF5FF" stroke-opacity=".08" rx="50" />
  <circle cx="128" cy="128" r="60" fill="url(#glow)" />
  <g filter="url(#soft)" opacity=".3">
    <circle cx="128" cy="128" r="52" stroke="#CFE1F8" stroke-width="6" />
  </g>
  <circle cx="128" cy="128" r="49" stroke="url(#ring)" stroke-width="9" />
  <path stroke="url(#ring)" stroke-linecap="round" stroke-width="6" d="M86 128h84" opacity=".7" />
  <rect width="26" height="84" x="115" y="86" fill="url(#pillar)" rx="13" />
  <path fill="#F6F9FD" d="M127.5 61.5c0-2.3 2.5-3.6 4.4-2.3l11.4 8.2c1.6 1.2 1.6 3.6-.1 4.7l-11.4 7.5c-2 1.3-4.3-.2-4.3-2.6V61.5Z" opacity=".95" />
  <circle cx="80" cy="80" r="4" fill="#E4ECF8" />
  <circle cx="176" cy="176" r="4" fill="#E4ECF8" />
  <path stroke="#E4ECF8" stroke-linecap="round" stroke-width="3" d="M66 46h30" opacity=".28" />
  <path stroke="#E4ECF8" stroke-linecap="round" stroke-width="3" d="M160 210h30" opacity=".28" />
</svg>
