<svg xmlns="http://www.w3.org/2000/svg" viewBox="0 0 128 128" fill="none">
  <defs>
    <linearGradient id="bg" x1="18" x2="106" y1="14" y2="114" gradientUnits="userSpaceOnUse">
      <stop stop-color="#0D1018" />
      <stop offset="1" stop-color="#1C2433" />
    </linearGradient>
    <linearGradient id="ring" x1="28" x2="101" y1="26" y2="103" gradientUnits="userSpaceOnUse">
      <stop stop-color="#F8FBFF" />
      <stop offset=".42" stop-color="#B5C8E3" />
      <stop offset="1" stop-color="#64748B" />
    </linearGradient>
    <linearGradient id="core" x1="45" x2="84" y1="37" y2="92" gradientUnits="userSpaceOnUse">
      <stop stop-color="#E7EDF6" />
      <stop offset="1" stop-color="#7B879B" />
    </linearGradient>
    <radialGradient id="glow" cx="0" cy="0" r="1" gradientTransform="matrix(0 38 -36 0 64 64)" gradientUnits="userSpaceOnUse">
      <stop stop-color="#95B5D8" stop-opacity=".26" />
      <stop offset="1" stop-color="#95B5D8" stop-opacity="0" />
    </radialGradient>
  </defs>
  <rect width="104" height="104" x="12" y="12" fill="url(#bg)" rx="28" />
  <rect width="104" height="104" x="12" y="12" stroke="#E8EEF9" stroke-opacity=".08" rx="28" />
  <circle cx="64" cy="64" r="36" fill="url(#glow)" />
  <circle cx="64" cy="64" r="28.5" stroke="url(#ring)" stroke-width="6" />
  <path stroke="url(#ring)" stroke-linecap="round" stroke-width="4.5" d="M40 64h48" opacity=".75" />
  <rect width="14" height="46" x="57" y="41" fill="url(#core)" rx="7" />
  <path fill="#F3F7FD" d="M63.5 26.5c0-1.4 1.6-2.2 2.8-1.3l5.2 3.9c1 .7.9 2.2-.1 2.9l-5.2 3.4c-1.3.8-2.8-.1-2.8-1.6v-7.3Z" opacity=".92" />
  <circle cx="35.5" cy="35.5" r="2.5" fill="#D7E4F3" />
  <circle cx="92.5" cy="92.5" r="2.5" fill="#D7E4F3" />
</svg>
