<?xml version="1.0" encoding="UTF-8"?>
<svg xmlns="http://www.w3.org/2000/svg" viewBox="0 0 720 920" role="img" aria-label="傻者画像">
  <defs>
    
    <style><![CDATA[
      @font-face {
        font-family: 'OBTI Sans';
        src: url('../fonts/Manrope-500.ttf') format('truetype');
        font-weight: 500;
        font-style: normal;
      }

      @font-face {
        font-family: 'OBTI Sans';
        src: url('../fonts/Manrope-800.ttf') format('truetype');
        font-weight: 800;
        font-style: normal;
      }

      @font-face {
        font-family: 'OBTI Sans CJK';
        src: url('../fonts/NotoSansCJKsc-Regular.otf') format('opentype');
        font-weight: 400;
        font-style: normal;
      }

      @font-face {
        font-family: 'OBTI Sans CJK';
        src: url('../fonts/NotoSansCJKsc-Bold.otf') format('opentype');
        font-weight: 700;
        font-style: normal;
      }

      @font-face {
        font-family: 'OBTI Display';
        src: url('../fonts/InstrumentSerif-Regular.ttf') format('truetype');
        font-weight: 400;
        font-style: normal;
      }

      @font-face {
        font-family: 'OBTI Serif CJK';
        src: url('../fonts/NotoSerifSC-700.ttf') format('truetype');
        font-weight: 700;
        font-style: normal;
      }
    ]]></style>

    <linearGradient id="bg-IMSB" x1="0%" y1="0%" x2="100%" y2="100%">
      <stop offset="0%" stop-color="#f8f2f1"/>
      <stop offset="56%" stop-color="#caa6a6"/>
      <stop offset="100%" stop-color="#251619"/>
    </linearGradient>
    <radialGradient id="glow-IMSB" cx="28%" cy="20%" r="72%">
      <stop offset="0%" stop-color="rgba(255,255,255,0.92)"/>
      <stop offset="42%" stop-color="rgba(255,255,255,0.16)"/>
      <stop offset="100%" stop-color="rgba(255,255,255,0)"/>
    </radialGradient>
    <filter id="grain-IMSB">
      <feTurbulence type="fractalNoise" baseFrequency="0.9" numOctaves="2" seed="8" result="noise"/>
      <feColorMatrix in="noise" type="saturate" values="0"/>
      <feComponentTransfer>
        <feFuncA type="table" tableValues="0 0 0.08 0.12"/>
      </feComponentTransfer>
    </filter>
  </defs>
  <rect width="720" height="920" rx="42" fill="url(#bg-IMSB)"/>
  <rect x="18" y="18" width="684" height="884" rx="30" fill="rgba(12,14,18,0.1)" stroke="rgba(255,255,255,0.2)"/>
  <ellipse cx="208" cy="168" rx="220" ry="176" fill="url(#glow-IMSB)"/>
  <g opacity="0.22" filter="url(#grain-IMSB)">
    <rect x="18" y="18" width="684" height="884" rx="30" fill="#ffffff"/>
  </g>
  <g opacity="0.12" fill="none" stroke="#fff" stroke-width="2">
    <path d="M44 124h632"/>
    <path d="M44 788h632"/>
  </g>
  <g transform="translate(0 16)">
    
        <g transform="translate(90 542) rotate(-7)">
          <rect x="0" y="0" width="168" height="122" rx="26" fill="#fff7ef" stroke="#5c4035" stroke-width="10"/>
          <text x="24" y="76" font-family="'OBTI Sans', 'OBTI Sans CJK', sans-serif" font-size="42" font-weight="800" fill="#6d514b">我是不是傻</text>
        </g>
      
    <ellipse cx="360" cy="744" rx="128" ry="30" fill="rgba(12,14,18,0.18)"/>
    <path d="M258 642c22-78 84-122 160-122 74 0 134 42 156 122-28 16-64 26-112 26-72 0-142-6-204-26Z" fill="#8d5f64" stroke="#1f1817" stroke-width="10"/>
    <path d="M220 640c10-34 38-54 72-50 28 4 48 20 54 50" fill="none" stroke="#8d5f64" stroke-width="22" stroke-linecap="round"/>
    <path d="M500 640c-10-34-38-54-72-50-28 4-48 20-54 50" fill="none" stroke="#8d5f64" stroke-width="22" stroke-linecap="round"/>
    <ellipse cx="360" cy="378" rx="138" ry="166" fill="#f1ceb3" stroke="#261814" stroke-width="10"/>
    <path d="M226 312c8-94 92-140 156-124 52 12 94 50 110 126-24-20-46-28-74-30-18-2-28 0-44 10-18 12-34 18-60 16-32-2-54 0-88 2Z" fill="#3a2a26"/>
    
    <g fill="none" stroke="#211812" stroke-width="8" stroke-linecap="round" stroke-linejoin="round">
      <path d="M300 332c18-12 36-14 52-4" /><path d="M396 332c16-12 34-12 50-2" />
      <path d="M304 364c10-14 28-14 40 0" /><path d="M392 366c8-14 24-14 36 0" />
      <path d="M334 442c18-12 40-16 58-8" />
    </g>
  
    <path d="M360 392c8 10 12 24 10 42-2 18-8 30-18 40" fill="none" stroke="#8a5a46" stroke-width="8" stroke-linecap="round"/>
    <circle cx="262" cy="388" r="10" fill="#e8b89e" opacity="0.72"/>
    <circle cx="460" cy="388" r="10" fill="#e8b89e" opacity="0.72"/>
  </g>
  <g transform="translate(48 54)">
    <rect x="0" y="0" width="194" height="42" rx="21" fill="rgba(11,15,20,0.2)" stroke="rgba(255,255,255,0.2)"/>
    <text x="22" y="28" font-family="'OBTI Sans', 'OBTI Sans CJK', sans-serif" font-size="20" letter-spacing="4" fill="rgba(255,255,255,0.86)">OBTI ARCHIVE</text>
  </g>
  <g transform="translate(486 70) rotate(-6)">
    <rect x="0" y="0" width="178" height="54" rx="18" fill="#fff3bf" stroke="#5b4f1f" stroke-width="6"/>
    <text x="18" y="34" font-family="'OBTI Sans', 'OBTI Sans CJK', sans-serif" font-size="24" font-weight="800" fill="#3c3315">我是不是有病</text>
  </g>
  <g transform="translate(54 782)">
    <text x="0" y="0" font-family="'OBTI Display', 'OBTI Serif CJK', serif" font-size="122" font-weight="400" letter-spacing="-4" fill="rgba(255,255,255,0.18)">IMSB</text>
    <text x="8" y="88" font-family="'OBTI Sans', 'OBTI Sans CJK', sans-serif" font-size="58" font-weight="800" fill="#ffffff">傻者</text>
    <text x="10" y="128" font-family="'OBTI Sans', 'OBTI Sans CJK', sans-serif" font-size="24" letter-spacing="2" fill="rgba(255,255,255,0.8)">自我审判比事情开始得更早</text>
  </g>
</svg>
