<svg xmlns="http://www.w3.org/2000/svg" viewBox="0 0 720 900" fill="none">
  <defs>
    <linearGradient id="bg" x1="45" x2="641" y1="42" y2="866" gradientUnits="userSpaceOnUse">
      <stop stop-color="#19080D" />
      <stop offset=".38" stop-color="#3C0F1E" />
      <stop offset=".72" stop-color="#791728" />
      <stop offset="1" stop-color="#E06B3D" />
    </linearGradient>
    <radialGradient id="glow" cx="0" cy="0" r="1" gradientTransform="matrix(0 250 -194 0 497 293)" gradientUnits="userSpaceOnUse">
      <stop stop-color="#FFD3A6" stop-opacity=".74" />
      <stop offset="1" stop-color="#FFD3A6" stop-opacity="0" />
    </radialGradient>
    <linearGradient id="skin" x1="323" x2="541" y1="176" y2="707" gradientUnits="userSpaceOnUse">
      <stop stop-color="#FFDFC7" />
      <stop offset=".5" stop-color="#F5B792" />
      <stop offset="1" stop-color="#A04D41" />
    </linearGradient>
  </defs>
  <rect width="720" height="900" fill="url(#bg)" rx="28" />
  <rect width="720" height="900" fill="url(#glow)" rx="28" />
  <rect width="660" height="840" x="30" y="30" stroke="#FFE9D0" stroke-opacity=".18" rx="24" />
  <rect width="112" height="40" x="44" y="44" fill="#FFF1E6" rx="20" />
  <text x="100" y="71" fill="#9B1C27" font-family="'Arial Black', Arial, sans-serif" font-size="19" text-anchor="middle">18+ ONLY</text>
  <circle cx="525" cy="346" r="165" fill="url(#skin)" fill-opacity=".9" />
  <ellipse cx="525" cy="362" fill="#1C0A11" fill-opacity=".56" rx="128" ry="210" />
  <ellipse cx="525" cy="246" fill="#F9DCC8" fill-opacity=".9" rx="58" ry="62" />
  <path fill="#2F0E19" fill-opacity=".65" d="M463 246c12-48 37-72 74-72 43 0 62 31 72 79-14-12-37-21-67-21-29 0-58 6-79 14Z" />
  <path fill="#FFD1A4" fill-opacity=".72" d="M450 468c36-40 79-58 127-58s86 19 115 56c-19 9-42 14-67 14-74 0-143-7-175-12Z" />
  <text x="52" y="604" fill="#FFF5EA" font-family="'Arial Black', Arial, sans-serif" font-size="82" letter-spacing="-2">今夜在线</text>
  <text x="53" y="666" fill="#FFD9B7" font-family="'Arial Black', Arial, sans-serif" font-size="40">附近 1.4km ・ 刚刚上线 ・ 只给你看</text>
  <text x="54" y="723" fill="#FFF7F0" font-family="Arial, sans-serif" font-size="30">真人视讯 / 即时回应 / 三分钟内接通</text>
  <rect width="266" height="80" x="52" y="764" fill="#FFF1E7" rx="18" />
  <text x="185" y="815" fill="#A31822" font-family="'Arial Black', Arial, sans-serif" font-size="34" text-anchor="middle">立即进入</text>
  <rect width="176" height="56" x="340" y="776" fill="#000" fill-opacity=".16" rx="16" />
  <text x="428" y="812" fill="#FFE4CC" font-family="Arial, sans-serif" font-size="24" text-anchor="middle">剩余 07 秒关闭</text>
  <rect width="116" height="34" x="550" y="58" fill="#FFEDC8" fill-opacity=".18" rx="17" />
  <text x="608" y="81" fill="#FFF2E5" font-family="Arial, sans-serif" font-size="18" text-anchor="middle">同城热推</text>
</svg>
